<svg width="28" height="28" viewBox="0 0 28 28" fill="none" xmlns="http://www.w3.org/2000/svg">
<path d="M7 13.2C7 10.2002 7 8.70032 7.74271 7.64886C7.98258 7.30928 8.27291 7.01065 8.60306 6.76393C9.62531 6 11.0835 6 14 6C16.9165 6 18.3747 6 19.3969 6.76393C19.7271 7.01065 20.0174 7.30928 20.2573 7.64886C21 8.70032 21 10.2002 21 13.2V14.8C21 17.7998 21 19.2997 20.2573 20.3511C20.0174 20.6907 19.7271 20.9894 19.3969 21.2361C18.3747 22 16.9165 22 14 22C11.0835 22 9.62531 22 8.60306 21.2361C8.27291 20.9894 7.98258 20.6907 7.74271 20.3511C7 19.2997 7 17.7998 7 14.8V13.2Z" stroke="#F5F5F5" stroke-width="1.5" stroke-linecap="round" stroke-linejoin="round"/>
<path d="M16.3333 12L10.1111 12M12.4444 16H10.1111" stroke="#F5F5F5" stroke-width="1.5" stroke-linecap="round" stroke-linejoin="round"/>
</svg>
