<svg width="28" height="28" viewBox="0 0 28 28" fill="none" xmlns="http://www.w3.org/2000/svg">
<path d="M12.5789 24H11.6316C8.50542 24 6.94234 24 5.97117 22.9749C5 21.9497 5 20.2998 5 17V12C5 8.70017 5 7.05025 5.97117 6.02513C6.94234 5 8.50542 5 11.6316 5H14.4737C17.5998 5 19.1629 5 20.1341 6.02513C21.1052 7.05025 21.1052 8.70017 21.1052 12V13" stroke="#F5F5F5" stroke-width="1.5" stroke-linecap="round" stroke-linejoin="round"/>
<path d="M16.6978 23.8557L16.5327 23.1241H16.5327L16.6978 23.8557ZM15.5577 22.6523L16.2928 22.8012L15.5577 22.6523ZM16.388 20.1117L15.8435 19.5959L16.388 20.1117ZM19.1047 22.9793L18.5602 22.4635H18.5602L19.1047 22.9793ZM22.8069 17.4773L23.4649 17.1174L22.8069 17.4773ZM22.2384 19.6715L22.7829 20.1873L22.2384 19.6715ZM22.8069 18.9981L23.4649 19.358L22.8069 18.9981ZM21.6004 16.2037L21.9907 15.5633V15.5633L21.6004 16.2037ZM19.5217 16.8039L20.0662 17.3197L19.5217 16.8039ZM20.1597 16.2037L19.7694 15.5633V15.5633L20.1597 16.2037ZM21.6939 19.1557L18.5602 22.4635L19.6491 23.4951L22.7829 20.1873L21.6939 19.1557ZM16.9324 20.6275L20.0662 17.3197L18.9772 16.2881L15.8435 19.5959L16.9324 20.6275ZM16.5327 23.1241C16.3662 23.1617 16.2345 23.1914 16.1215 23.2135C16.0075 23.2359 15.9356 23.2459 15.8892 23.249C15.8414 23.2522 15.8543 23.2455 15.8977 23.2573C15.9546 23.2728 16.0226 23.3086 16.0772 23.3663L14.9882 24.3979C15.3062 24.7335 15.7112 24.7643 15.9896 24.7456C16.2484 24.7283 16.5618 24.6553 16.8629 24.5873L16.5327 23.1241ZM14.8226 22.5034C14.7574 22.8253 14.6907 23.1457 14.6749 23.4077C14.6586 23.6778 14.6816 24.0743 14.9882 24.3979L16.0772 23.3663C16.1992 23.4951 16.1647 23.6215 16.1722 23.4979C16.1756 23.4416 16.186 23.3602 16.2075 23.2382C16.2288 23.1172 16.2573 22.9765 16.2928 22.8012L14.8226 22.5034ZM21.6939 17.3197C22.0418 17.6869 22.1124 17.7705 22.1489 17.8372L23.4649 17.1174C23.3118 16.8373 23.0665 16.5875 22.7829 16.2881L21.6939 17.3197ZM22.7829 20.1873C23.0665 19.8879 23.3118 19.638 23.4649 19.358L22.1489 18.6382C22.1124 18.7049 22.0418 18.7884 21.6939 19.1557L22.7829 20.1873ZM22.1489 17.8372C22.2836 18.0835 22.2836 18.3919 22.1489 18.6382L23.4649 19.358C23.845 18.6632 23.845 17.8122 23.4649 17.1174L22.1489 17.8372ZM22.7829 16.2881C22.5013 15.9909 22.2621 15.7287 21.9907 15.5633L21.2101 16.8442C21.2673 16.879 21.3439 16.9502 21.6939 17.3197L22.7829 16.2881ZM20.0662 17.3197C20.4162 16.9502 20.4928 16.879 20.55 16.8442L19.7694 15.5633C19.498 15.7287 19.2588 15.9909 18.9772 16.2881L20.0662 17.3197ZM21.9907 15.5633C21.3053 15.1456 20.4548 15.1456 19.7694 15.5633L20.55 16.8442C20.756 16.7186 21.004 16.7186 21.2101 16.8442L21.9907 15.5633ZM18.5602 22.4635C18.3801 22.6537 18.136 22.7758 17.7848 22.8704C17.6076 22.9182 17.4179 22.9553 17.2039 22.9943C16.9992 23.0316 16.7613 23.0725 16.5327 23.1241L16.8629 24.5873C17.0522 24.5446 17.246 24.5114 17.473 24.47C17.6909 24.4302 17.9333 24.3839 18.1751 24.3188C18.6617 24.1876 19.2032 23.9658 19.6491 23.4951L18.5602 22.4635ZM16.2928 22.8012C16.3411 22.5627 16.3793 22.3149 16.415 22.0972C16.452 21.8709 16.4877 21.6669 16.5341 21.4753C16.6271 21.0906 16.7485 20.8216 16.9324 20.6275L15.8435 19.5959C15.4013 20.0626 15.197 20.6228 15.0761 21.1226C15.0155 21.3733 14.9722 21.6253 14.9346 21.8549C14.8957 22.0929 14.8637 22.3007 14.8226 22.5034L16.2928 22.8012Z" fill="#F5F5F5"/>
<path d="M17.7896 4V6M13.0528 4V6M8.31592 4V6" stroke="#F5F5F5" stroke-width="1.5" stroke-linecap="round" stroke-linejoin="round"/>
<path d="M9.26306 17H13.0525M9.26306 12H16.842" stroke="#F5F5F5" stroke-width="1.5" stroke-linecap="round"/>
</svg>
