<svg width="28" height="28" viewBox="0 0 28 28" fill="none" xmlns="http://www.w3.org/2000/svg">
<path d="M14 4C8.47715 4 4 8.47715 4 14C4 19.5228 8.47715 24 14 24C19.5228 24 24 19.5228 24 14C24 8.47715 19.5228 4 14 4ZM6.55053 9.40771C6.95687 11.0686 9.71482 12.5817 11.1956 13.3941C11.7964 13.7237 12.187 13.938 12.125 14C12.0241 14.1009 11.9221 14.198 11.8222 14.2931C11.303 14.7873 10.8393 15.2287 10.875 15.875C10.9188 16.668 11.6473 16.9046 12.3928 17.1467C13.1144 17.3811 13.852 17.6207 14 18.375C14.1024 18.8968 13.9068 19.6102 13.7246 20.2747C13.4565 21.2527 13.2174 22.125 14 22.125C15.875 21.5 18.748 18.143 19 15.875C19.1726 14.3217 16.5 13.375 14.625 12.75C14.0275 12.5508 13.6806 12.8513 13.3871 13.1056C13.1719 13.292 12.9855 13.4535 12.75 13.375C12.1934 13.1895 9.625 10.875 10.875 10.25C11.851 9.76203 12.0649 10.0361 12.4093 10.4771C12.506 10.601 12.613 10.738 12.75 10.875C13.5106 11.2553 13.577 10.71 13.6532 10.0838C13.7022 9.68099 13.7553 9.2447 14 9.00001C14.542 8.45798 15.581 8.01094 16.5346 7.60064C17.4253 7.21738 18.2416 6.86617 18.5087 6.49955C21.0502 8.03058 22.75 10.8168 22.75 14C22.75 18.8325 18.8325 22.75 14 22.75C9.16751 22.75 5.25 18.8325 5.25 14C5.25 12.3157 5.72588 10.7426 6.55053 9.40771Z" fill="#F5F5F5"/>
</svg>
