<svg width="28" height="28" viewBox="0 0 28 28" fill="none" xmlns="http://www.w3.org/2000/svg">
<path d="M14.5439 3.23013C14.2435 2.92329 13.7565 2.92329 13.4561 3.23013L4.2253 12.6587C4.08104 12.8061 4 13.0059 4 13.2143V24.2143C4 24.6482 4.3444 25 4.76923 25H11.6923C12.1171 25 12.4615 24.6482 12.4615 24.2143V17.9286H15.5385V24.2143C15.5385 24.6482 15.8829 25 16.3077 25H23.2308C23.6556 25 24 24.6482 24 24.2143V13.2143C24 13.0059 23.919 12.8061 23.7747 12.6587L21.6923 10.5317V5.35714C21.6923 4.9232 21.3479 4.57143 20.9231 4.57143H19.3846C18.9598 4.57143 18.6154 4.9232 18.6154 5.35714V7.38883L14.5439 3.23013ZM5.53846 23.4286V13.5397L14 4.89688L22.4615 13.5397V23.4286H17.0769V17.1429C17.0769 16.7089 16.7325 16.3571 16.3077 16.3571H11.6923C11.2675 16.3571 10.9231 16.7089 10.9231 17.1429V23.4286H5.53846Z" fill="#F5F5F5"/>
</svg>
