<svg width="28" height="28" viewBox="0 0 28 28" fill="none" xmlns="http://www.w3.org/2000/svg">
<path d="M14 14C16.7614 14 19 11.7614 19 9C19 6.23858 16.7614 4 14 4C11.2386 4 9 6.23858 9 9C9 11.7614 11.2386 14 14 14ZM17.3333 9C17.3333 10.8409 15.8409 12.3333 14 12.3333C12.1591 12.3333 10.6667 10.8409 10.6667 9C10.6667 7.15905 12.1591 5.66667 14 5.66667C15.8409 5.66667 17.3333 7.15905 17.3333 9Z" fill="#F5F5F5"/>
<path d="M24 22.3333C24 24 22.3333 24 22.3333 24H5.66667C5.66667 24 4 24 4 22.3333C4 20.6667 5.66667 15.6667 14 15.6667C22.3333 15.6667 24 20.6667 24 22.3333ZM22.3333 22.3275C22.3309 21.9162 22.077 20.6841 20.9465 19.5535C19.8594 18.4664 17.8152 17.3333 14 17.3333C10.1848 17.3333 8.14059 18.4664 7.05349 19.5535C5.92292 20.6841 5.66904 21.9162 5.66667 22.3275H22.3333Z" fill="#F5F5F5"/>
</svg>
