<svg width="28" height="28" viewBox="0 0 28 28" fill="none" xmlns="http://www.w3.org/2000/svg">
<path d="M6 14C6 10.2288 6 8.34315 7.17157 7.17157C8.34315 6 10.2288 6 14 6C17.7712 6 19.6569 6 20.8284 7.17157C22 8.34315 22 10.2288 22 14C22 17.7712 22 19.6569 20.8284 20.8284C19.6569 22 17.7712 22 14 22C10.2288 22 8.34315 22 7.17157 20.8284C6 19.6569 6 17.7712 6 14Z" stroke="#F5F5F5" stroke-width="1.5"/>
<path d="M12.9437 12.3158C12.9437 11.5219 12.9437 11.1249 12.6819 10.8782C12.4201 10.6316 11.9987 10.6316 11.156 10.6316C10.3133 10.6316 9.89199 10.6316 9.6302 10.8782C9.36841 11.1249 9.36841 11.5219 9.36841 12.3158C9.36841 13.1097 9.36841 13.5067 9.6302 13.7534C9.89199 14 10.3133 14 11.156 14C11.9987 14 12.4201 14 12.6819 13.7534C12.9437 13.5067 12.9437 13.1097 12.9437 12.3158ZM12.9437 12.3158L12.9437 14.0578C12.9437 15.6018 11.8194 16.9112 10.2622 17.3684M18.6316 12.3158C18.6316 11.5219 18.6316 11.1249 18.3698 10.8782C18.108 10.6316 17.6866 10.6316 16.8439 10.6316C16.0012 10.6316 15.5799 10.6316 15.3181 10.8782C15.0563 11.1249 15.0563 11.5219 15.0563 12.3158C15.0563 13.1097 15.0563 13.5067 15.3181 13.7534C15.5799 14 16.0012 14 16.8439 14C17.6866 14 18.108 14 18.3698 13.7534C18.6316 13.5067 18.6316 13.1097 18.6316 12.3158ZM18.6316 12.3158V14.0578C18.6316 15.6018 17.5073 16.9112 15.9501 17.3684" stroke="#F5F5F5" stroke-width="1.5" stroke-linecap="round"/>
</svg>
