<svg width="28" height="28" viewBox="0 0 28 28" fill="none" xmlns="http://www.w3.org/2000/svg">
<path d="M14 22.75C9.16751 22.75 5.25 18.8325 5.25 14C5.25 9.16751 9.16751 5.25 14 5.25C18.8325 5.25 22.75 9.16751 22.75 14C22.75 18.8325 18.8325 22.75 14 22.75ZM14 24C19.5228 24 24 19.5228 24 14C24 8.47715 19.5228 4 14 4C8.47715 4 4 8.47715 4 14C4 19.5228 8.47715 24 14 24Z" fill="#F5F5F5"/>
<path d="M15.1634 12.2349L12.2996 12.5938L12.1971 13.0698L12.761 13.1724C13.1272 13.2603 13.2005 13.3921 13.1199 13.7583L12.1971 18.0942C11.9554 19.2148 12.3289 19.7422 13.2078 19.7422C13.889 19.7422 14.68 19.4272 15.0389 18.9951L15.1487 18.4751C14.8997 18.6948 14.5335 18.7827 14.2918 18.7827C13.9476 18.7827 13.823 18.541 13.9109 18.1162L15.1634 12.2349Z" fill="#F5F5F5"/>
<path d="M15.25 9.625C15.25 10.3154 14.6904 10.875 14 10.875C13.3096 10.875 12.75 10.3154 12.75 9.625C12.75 8.93464 13.3096 8.375 14 8.375C14.6904 8.375 15.25 8.93464 15.25 9.625Z" fill="#F5F5F5"/>
</svg>
