<svg width="28" height="28" viewBox="0 0 28 28" fill="none" xmlns="http://www.w3.org/2000/svg">
<path d="M21.6352 12.7496C21.8784 13.0846 22 13.2521 22 13.5C22 13.7479 21.8784 13.9154 21.6352 14.2504C20.5423 15.7554 17.7514 19 14 19C10.2486 19 7.45768 15.7554 6.36483 14.2504C6.12161 13.9154 6 13.7479 6 13.5C6 13.2521 6.12161 13.0846 6.36483 12.7496C7.45768 11.2446 10.2486 8 14 8C17.7514 8 20.5423 11.2446 21.6352 12.7496Z" stroke="#F5F5F5" stroke-width="1.5"/>
<path d="M16.4 13.5C16.4 12.1982 15.3255 11.1429 14 11.1429C12.6745 11.1429 11.6 12.1982 11.6 13.5C11.6 14.8018 12.6745 15.8572 14 15.8572C15.3255 15.8572 16.4 14.8018 16.4 13.5Z" stroke="#F5F5F5" stroke-width="1.5"/>
</svg>
