<svg width="28" height="28" viewBox="0 0 28 28" fill="none" xmlns="http://www.w3.org/2000/svg">
<path d="M16.625 22.75C16.625 24.1997 15.4497 25.375 14 25.375C12.5503 25.375 11.375 24.1997 11.375 22.75C11.375 21.3003 12.5503 20.125 14 20.125C15.4497 20.125 16.625 21.3003 16.625 22.75ZM16.625 14C16.625 15.4497 15.4497 16.625 14 16.625C12.5503 16.625 11.375 15.4497 11.375 14C11.375 12.5503 12.5503 11.375 14 11.375C15.4497 11.375 16.625 12.5503 16.625 14ZM16.625 5.25C16.625 6.69975 15.4497 7.875 14 7.875C12.5503 7.875 11.375 6.69975 11.375 5.25C11.375 3.80025 12.5503 2.625 14 2.625C15.4497 2.625 16.625 3.80025 16.625 5.25Z" fill="#F5F5F5"/>
</svg>
