<svg width="28" height="28" viewBox="0 0 28 28" fill="none" xmlns="http://www.w3.org/2000/svg">
<path d="M7.17156 20.8284C6 19.6569 6 17.7713 6 14.0001C6 10.2289 6 8.34331 7.17156 7.17175C8.34312 6.00019 10.2287 6.00019 13.9999 6.00019C17.7711 6.00019 19.6567 6.00019 20.8282 7.17175C21.9998 8.34331 21.9998 10.2289 21.9998 14.0001C21.9998 17.7713 21.9998 19.6569 20.8282 20.8284C19.6567 22 17.7711 22 13.9999 22C10.2287 22 8.34312 22 7.17156 20.8284Z" stroke="#F5F5F5" stroke-width="1.5" stroke-linecap="round" stroke-linejoin="round"/>
<path d="M6 11.4736L21.9998 11.4736" stroke="#F5F5F5" stroke-width="1.5"/>
<path d="M6 16.5261L21.9998 16.5261" stroke="#F5F5F5" stroke-width="1.5"/>
<path d="M17.3683 22L17.3683 6.00019" stroke="#F5F5F5" stroke-width="1.5"/>
<path d="M10.6315 21.9999L10.6315 6.00007" stroke="#F5F5F5" stroke-width="1.5"/>
</svg>
