<svg width="28" height="28" viewBox="0 0 28 28" fill="none" xmlns="http://www.w3.org/2000/svg">
<path d="M13.1111 8.22229L22 8.22229" stroke="#F5F5F5" stroke-width="1.5" stroke-linecap="round"/>
<path d="M8.13333 18.349C9.08148 18.984 9.55556 19.3015 9.55556 19.7778C9.55556 20.254 9.08148 20.5715 8.13333 21.2065C7.18519 21.8415 6.71111 22.1591 6.35556 21.9209C6 21.6828 6 21.0478 6 19.7778C6 18.5077 6 17.8727 6.35556 17.6346C6.71111 17.3965 7.18519 17.714 8.13333 18.349Z" stroke="#F5F5F5" stroke-width="1.5" stroke-linecap="round"/>
<path d="M8.13333 6.79345C9.08148 7.42846 9.55556 7.74596 9.55556 8.22222C9.55556 8.69848 9.08148 9.01598 8.13333 9.651C7.18519 10.286 6.71111 10.6035 6.35556 10.3654C6 10.1273 6 9.49224 6 8.22222C6 6.9522 6 6.31719 6.35556 6.07906C6.71111 5.84093 7.18519 6.15844 8.13333 6.79345Z" stroke="#F5F5F5" stroke-width="1.5" stroke-linecap="round"/>
<path d="M13.1111 14L22 14" stroke="#F5F5F5" stroke-width="1.5" stroke-linecap="round"/>
<path d="M13.1111 19.7777L22 19.7777" stroke="#F5F5F5" stroke-width="1.5" stroke-linecap="round"/>
</svg>
