<svg width="28" height="28" viewBox="0 0 28 28" fill="none" xmlns="http://www.w3.org/2000/svg">
<path d="M13.1111 8.66663L22 8.66663" stroke="#F5F5F5" stroke-width="1.5" stroke-linecap="round"/>
<path d="M13.1111 14L22 14" stroke="#F5F5F5" stroke-width="1.5" stroke-linecap="round"/>
<path d="M13.1111 19.3334L22 19.3334" stroke="#F5F5F5" stroke-width="1.5" stroke-linecap="round"/>
<path d="M6 16.6666H7.33333C7.58115 16.6666 7.70506 16.6666 7.8081 16.6871C8.23123 16.7713 8.562 17.1021 8.64617 17.5252C8.66667 17.6282 8.66667 17.7521 8.66667 18C8.66667 18.2478 8.66667 18.3717 8.64617 18.4747C8.562 18.8979 8.23123 19.2286 7.8081 19.3128C7.70506 19.3333 7.58115 19.3333 7.33333 19.3333C7.08552 19.3333 6.96161 19.3333 6.85857 19.3538C6.43543 19.438 6.10466 19.7687 6.0205 20.1919C6 20.2949 6 20.4188 6 20.6666V21.4666C6 21.718 6 21.8437 6.0781 21.9219C6.15621 22 6.28192 22 6.53333 22H8.66667" stroke="#F5F5F5" stroke-width="1.5" stroke-linecap="round" stroke-linejoin="round"/>
<path d="M6 6H7.06667C7.21394 6 7.33333 6.11939 7.33333 6.26667V11.3333M7.33333 11.3333H6M7.33333 11.3333H8.66667" stroke="#F5F5F5" stroke-width="1.5" stroke-linecap="round" stroke-linejoin="round"/>
</svg>
