<svg width="28" height="28" viewBox="0 0 28 28" fill="none" xmlns="http://www.w3.org/2000/svg">
<path d="M22.75 22C22.75 22 24 22 24 20.75C24 19.5 22.75 15.75 17.75 15.75C12.75 15.75 11.5 19.5 11.5 20.75C11.5 22 12.75 22 12.75 22H22.75ZM12.7779 20.75C12.7736 20.7495 12.7675 20.7487 12.7602 20.7475C12.7567 20.7469 12.7533 20.7463 12.75 20.7456C12.7518 20.4156 12.9586 19.4586 13.6991 18.5947C14.3917 17.7867 15.6034 17 17.75 17C19.8966 17 21.1083 17.7867 21.8009 18.5947C22.5414 19.4586 22.7482 20.4156 22.75 20.7456C22.7467 20.7463 22.7433 20.7469 22.7398 20.7475C22.7325 20.7487 22.7264 20.7495 22.7221 20.75H12.7779Z" fill="#F5F5F5"/>
<path d="M17.75 13.25C19.1307 13.25 20.25 12.1307 20.25 10.75C20.25 9.36929 19.1307 8.25 17.75 8.25C16.3693 8.25 15.25 9.36929 15.25 10.75C15.25 12.1307 16.3693 13.25 17.75 13.25ZM21.5 10.75C21.5 12.8211 19.8211 14.5 17.75 14.5C15.6789 14.5 14 12.8211 14 10.75C14 8.67893 15.6789 7 17.75 7C19.8211 7 21.5 8.67893 21.5 10.75Z" fill="#F5F5F5"/>
<path d="M12.6699 16.1C12.2102 15.9529 11.6994 15.846 11.1329 15.7913C10.8524 15.7643 10.5584 15.75 10.25 15.75C5.25 15.75 4 19.5 4 20.75C4 21.5833 4.41667 22 5.25 22H10.5205C10.3445 21.6449 10.25 21.2239 10.25 20.75C10.25 19.4871 10.7216 18.1975 11.6123 17.1202C11.9166 16.7522 12.2698 16.4089 12.6699 16.1ZM10.1501 17.0006C9.40319 18.142 9 19.4434 9 20.75H5.25C5.25 20.4241 5.45531 19.4625 6.19907 18.5947C6.88086 17.7993 8.06562 17.0246 10.1501 17.0006Z" fill="#F5F5F5"/>
<path d="M5.875 11.375C5.875 9.30393 7.55393 7.625 9.625 7.625C11.6961 7.625 13.375 9.30393 13.375 11.375C13.375 13.4461 11.6961 15.125 9.625 15.125C7.55393 15.125 5.875 13.4461 5.875 11.375ZM9.625 8.875C8.24429 8.875 7.125 9.99429 7.125 11.375C7.125 12.7557 8.24429 13.875 9.625 13.875C11.0057 13.875 12.125 12.7557 12.125 11.375C12.125 9.99429 11.0057 8.875 9.625 8.875Z" fill="#F5F5F5"/>
</svg>
