<svg width="28" height="28" viewBox="0 0 28 28" fill="none" xmlns="http://www.w3.org/2000/svg">
<path fill-rule="evenodd" clip-rule="evenodd" d="M8 8.66667C8 7.40959 8 6.78105 8.40554 6.39052C8.81109 6 9.4638 6 10.7692 6H14.996C17.2498 6 19.0769 7.79086 19.0769 10C19.0769 12.2091 17.2498 14 14.996 14H8V8.66667Z" stroke="#F5F5F5" stroke-width="1.5" stroke-linecap="round" stroke-linejoin="round"/>
<path d="M14.8571 14H16C18.2091 14 20 15.7909 20 18C20 20.2091 18.2091 22 16 22H10.7692C9.4638 22 8.81109 22 8.40554 21.6095C8 21.219 8 20.5904 8 19.3333V14" stroke="#F5F5F5" stroke-width="1.5" stroke-linecap="round" stroke-linejoin="round"/>
</svg>
